<?xml version="1.0" ?><svg id="Layer_1" style="enable-background:new 0 0 500 500;" version="1.1" viewBox="0 0 500 500" xml:space="preserve" xmlns="http://www.w3.org/2000/svg" xmlns:xlink="http://www.w3.org/1999/xlink"><style type="text/css">
	.st0{fill:none;}
	.st1{fill:#2D2D2D;}
</style><line class="st0" x1="-1014.38" x2="-1014.38" y1="-229.81" y2="-217.68"/><g><polygon class="st1" points="275.4,254.97 222.34,254.97 222.34,303.63 222.26,303.63 222.26,348.53 248.83,363.86 275.4,348.53    275.4,308.74  "/><path class="st1" d="M251.21,197.64h-4.39c-13.53,0-24.49,10.97-24.49,24.49v27.72h53.38v-27.72   C275.71,208.61,264.74,197.64,251.21,197.64z"/><g><polygon class="st1" points="420.63,182.72 420.63,152.25 394.24,137.02 367.86,152.25 367.86,182.72 394.24,197.95   "/><polygon class="st1" points="130.92,182.72 130.92,152.25 104.54,137.02 78.16,152.25 78.16,182.72 104.54,197.95   "/><polygon class="st1" points="275.48,437.8 275.48,407.34 249.09,392.1 222.71,407.34 222.71,437.8 249.09,453.03   "/><polygon class="st1" points="407.33,311.31 388.14,322.39 383.94,319.13 346.28,300.81 346.28,200.38 259.67,150.38     259.67,110.02 279.04,98.84 279.04,64.26 249.09,46.97 219.15,64.26 219.15,98.84 238.12,109.8 238.12,150.6 151.91,200.38     151.91,298.99 110.5,319.13 92.67,308.83 63.64,325.59 63.64,359.12 92.67,375.88 121.7,359.12 121.7,335.86 161.13,317.93     177.09,327.14 177.09,214.92 249.09,173.35 321.1,214.92 321.1,327.14 335.4,318.88 378.3,338.39 378.3,361.6 407.33,378.36     436.36,361.6 436.36,328.07   "/></g></g></svg>