<svg width="100" height="100" xmlns="http://www.w3.org/2000/svg">

 <g>
  <title>background</title>
  <rect fill="none" id="canvas_background" height="402" width="582" y="-1" x="-1"/>
 </g>
 <g>
  <title>Layer 1</title>
  <path fill="#ffffff" id="svg_1" d="m70,9.999l-40,0c-10.999,0 -20,9.001 -20,20l0,40.002c0,10.996 9.001,20 20,20l40,0c10.999,0 20,-9.004 20,-20l0,-40.002c0,-10.999 -9.001,-20 -20,-20zm13.333,60.002c0,7.35 -5.979,13.333 -13.333,13.333l-40,0c-7.351,0 -13.333,-5.983 -13.333,-13.333l0,-40.002c0,-7.352 5.982,-13.333 13.333,-13.333l40,0c7.354,0 13.333,5.981 13.333,13.333l0,40.002z"/>
  <circle fill="#ffffff" id="svg_2" r="5" cy="28.332" cx="71.667"/>
  <path fill="#ffffff" id="svg_3" d="m50,29.999c-11.048,0 -20,8.953 -20,20c0,11.043 8.952,20.002 20,20.002c11.045,0 20,-8.959 20,-20.002c0,-11.047 -8.955,-20 -20,-20zm0,33.335c-7.363,0 -13.333,-5.97 -13.333,-13.335s5.97,-13.333 13.333,-13.333s13.333,5.968 13.333,13.333s-5.97,13.335 -13.333,13.335z"/>
 </g>
</svg>